<mxfile host="app.diagrams.net" modified="2023-11-07T00:37:21.214Z" agent="Mozilla/5.0 (Windows NT 10.0; Win64; x64) AppleWebKit/537.36 (KHTML, like Gecko) Chrome/119.0.0.0 Safari/537.36" version="21.3.6" etag="QCRitT9Sl3hWbeXhCMxm" type="github">
  <diagram name="Page-1" id="scAVlKOCex_SeMDko07Q">
    <mxGraphModel>
      <root>
        <mxCell id="0" />
        <mxCell id="1" parent="0" />
      </root>
    </mxGraphModel>
  </diagram>
</mxfile>
